<?xml version="1.0" encoding="UTF-8"?>
<svg version="1.1" xmlns="http://www.w3.org/2000/svg" width="500" height="500">
<path d="M0 0 C11.53273329 8.30343106 21.64135314 20.7791476 24.03515625 35.22265625 C25.55672334 54.00709365 22.89186466 69.56089304 10.625 84.5 C3.15628292 92.53776219 -6.1856777 97.99726346 -16.75 100.875 C-17.41 100.875 -18.07 100.875 -18.75 100.875 C-18.78291693 124.87521971 -18.77595485 148.87514125 -18.72153378 172.87532902 C-18.69719447 184.01910325 -18.68589893 195.16260552 -18.70532227 206.30639648 C-18.72221885 216.01950245 -18.71462956 225.73222803 -18.67765242 235.44528383 C-18.65892796 240.58828585 -18.65245496 245.73064457 -18.67530632 250.87364388 C-18.69643427 255.71584936 -18.68478985 260.55687683 -18.64815521 265.39897919 C-18.6404702 267.17467882 -18.64469448 268.95047672 -18.66181374 270.72611046 C-19.05986864 279.97268945 -19.05986864 279.97268945 -16.13260078 288.45248222 C-14.27600279 290.37571243 -14.27600279 290.37571243 -12.25008488 291.77341366 C-11.75505687 292.13693715 -11.26002886 292.50046064 -10.75 292.875 C-10.75 293.535 -10.75 294.195 -10.75 294.875 C-9.76 295.205 -8.77 295.535 -7.75 295.875 C-6.23435974 297.41064453 -6.23435974 297.41064453 -4.61108398 299.3828125 C-0.62380554 304.0789332 3.65854516 308.4103641 8.02734375 312.75 C8.83869278 313.55993408 9.65004181 314.36986816 10.48597717 315.2043457 C13.05079139 317.76361015 15.61907948 320.3193553 18.1875 322.875 C19.93838283 324.62086133 21.68903613 326.36695287 23.43945312 328.11328125 C27.70698616 332.36985198 31.97736866 336.62354716 36.25 340.875 C34.64464713 344.28559403 32.84481099 346.49292484 30.125 349.125 C29.40054687 349.83140625 28.67609375 350.5378125 27.9296875 351.265625 C27.37539063 351.79671875 26.82109375 352.3278125 26.25 352.875 C20.89504965 348.47204082 16.03487089 343.71286334 11.19140625 338.75390625 C9.15474429 336.71199697 7.03949761 334.82526741 4.83984375 332.9609375 C-2.04307374 327.00182501 -8.33717482 320.39168315 -14.75 313.9375 C-16.11044318 312.57203255 -17.47111831 311.20679614 -18.83203125 309.84179688 C-22.1407031 306.52219114 -25.44621322 303.19946727 -28.75 299.875 C-32.19761196 301.49333068 -34.12580553 303.15973911 -36.625 306.0625 C-40.52955918 310.51203049 -44.51263685 314.86974492 -48.5625 319.1875 C-54.47887222 325.50841728 -60.36347595 331.85746031 -66.22949219 338.22509766 C-68.98434891 341.21439145 -71.74241156 344.20072641 -74.5 347.1875 C-75.51563792 348.28774849 -76.53126418 349.38800775 -77.546875 350.48828125 C-78.27390625 351.27589844 -79.0009375 352.06351562 -79.75 352.875 C-88.19646925 346.72465831 -88.19646925 346.72465831 -91.75 342.875 C-90.41000502 339.868182 -88.95154709 337.87737391 -86.5625 335.625 C-84.15558542 333.28685441 -81.87027956 330.92342283 -79.6875 328.375 C-76.22614857 324.361388 -72.62302682 320.49195434 -69 316.625 C-63.79592798 311.0698678 -58.62547623 305.48791018 -53.4921875 299.8671875 C-51.50741781 297.69630021 -49.51063279 295.53705689 -47.5078125 293.3828125 C-46.69304443 292.50520264 -46.69304443 292.50520264 -45.86181641 291.60986328 C-44.81617112 290.48439291 -43.76905683 289.36028489 -42.72021484 288.23779297 C-37.10588635 282.61747483 -37.10588635 282.61747483 -35.35127258 275.25592041 C-35.33873444 274.33327896 -35.32619629 273.41063751 -35.3132782 272.46003723 C-35.31471329 271.45518784 -35.31614838 270.45033844 -35.31762695 269.41503906 C-35.3074353 268.35131577 -35.29724365 267.28759247 -35.28674316 266.19163513 C-35.25654154 262.67457867 -35.24733605 259.15779426 -35.23828125 255.640625 C-35.22143993 253.20252573 -35.20329043 250.76443518 -35.18388367 248.32635498 C-35.13631846 241.90829185 -35.10655111 235.49026403 -35.08044434 229.07208252 C-35.05067183 222.52324446 -35.00413012 215.97452818 -34.95898438 209.42578125 C-34.87287698 196.57558697 -34.8049953 183.72536316 -34.75 170.875 C-35.50084869 171.16076401 -36.25169739 171.44652802 -37.02529907 171.74095154 C-53.06295518 177.84184447 -69.11157532 183.90966036 -85.20654297 189.8581543 C-88.20512935 190.96713459 -91.20216531 192.0802438 -94.19921875 193.19335938 C-96.14053342 193.91170587 -98.08193607 194.62981467 -100.0234375 195.34765625 C-100.90252777 195.67468033 -101.78161804 196.00170441 -102.68734741 196.33863831 C-107.33562078 198.05159959 -111.96634279 199.58560126 -116.75 200.875 C-116.75 202.195 -116.75 203.515 -116.75 204.875 C-122.36 205.205 -127.97 205.535 -133.75 205.875 C-139.40734122 217.42618295 -145.03982819 228.98888287 -150.63537598 240.57012939 C-151.65405899 242.6766088 -152.67573556 244.78160534 -153.69824219 246.88623047 C-155.29530621 250.18709969 -156.87096074 253.49706174 -158.4375 256.8125 C-159.13129761 258.2365918 -159.13129761 258.2365918 -159.83911133 259.68945312 C-161.49501127 263.24281343 -162.72628248 265.99067523 -162.83203125 269.93359375 C-161.2526573 274.22698214 -159.06246796 278.06238094 -156.75 282 C-155.8290797 283.58347129 -154.91225013 285.16933045 -154 286.7578125 C-153.59265625 287.45277832 -153.1853125 288.14774414 -152.765625 288.86376953 C-150.61112651 293.13029804 -150.35447331 297.12867977 -150.75 301.875 C-152.55292428 307.11719831 -154.95963885 310.90953833 -159.75 313.875 C-165.1994793 316.2272975 -170.24455617 316.14567133 -176.06982422 316.10205078 C-177.60732582 316.10248886 -177.60732582 316.10248886 -179.17588806 316.10293579 C-182.55224168 316.10154629 -185.92837259 316.08600274 -189.3046875 316.0703125 C-191.65023681 316.06658103 -193.99578768 316.06373469 -196.34133911 316.06173706 C-202.50626958 316.05411121 -208.67110539 316.03447161 -214.83599854 316.0123291 C-221.130236 315.99184817 -227.4244888 315.98273053 -233.71875 315.97265625 C-246.06254152 315.95122482 -258.40626288 315.91710143 -270.75 315.875 C-271.08 309.935 -271.41 303.995 -271.75 297.875 C-238.75 297.545 -205.75 297.215 -171.75 296.875 C-172.58815138 292.68424309 -173.25669849 290.59426157 -175.3125 287.0625 C-175.76753906 286.27230469 -176.22257812 285.48210937 -176.69140625 284.66796875 C-177.21541016 283.78044922 -177.21541016 283.78044922 -177.75 282.875 C-178.56130875 282.86913376 -179.37261749 282.86326752 -180.20851135 282.85722351 C-187.87364688 282.7991957 -195.53846109 282.72706175 -203.20330906 282.63928509 C-207.14341224 282.59465574 -211.08341379 282.55538362 -215.02368164 282.52856445 C-218.82994894 282.50245673 -222.6358236 282.46200256 -226.44184685 282.41181374 C-227.89016759 282.39519526 -229.33855616 282.38364982 -230.78695869 282.37738609 C-240.7211499 282.33009759 -248.19837145 282.07192471 -255.75 274.875 C-257.5324707 272.21899414 -257.5324707 272.21899414 -259.17578125 269.16015625 C-260.11260742 267.43877441 -260.11260742 267.43877441 -261.06835938 265.68261719 C-261.7335841 264.43451711 -262.39828487 263.18613766 -263.0625 261.9375 C-264.11178203 259.98750354 -265.16389618 258.03905375 -266.21627808 256.09072876 C-266.94411882 254.74263506 -267.6706033 253.3938083 -268.39578247 252.04428101 C-270.9742088 247.25965518 -273.64274266 242.53375591 -276.35546875 237.82421875 C-277.46333896 235.88354727 -278.56954819 233.94193951 -279.67514038 231.99996948 C-280.38538763 230.76102452 -281.10194685 229.52567434 -281.82510376 228.29421997 C-289.23720626 215.65184938 -289.23720626 215.65184938 -287.75 207.875 C-285.55065933 205.12968447 -283.72281226 204.0177341 -280.23082542 203.50537872 C-276.92807388 203.33981014 -273.64751137 203.31510213 -270.34057617 203.32910156 C-268.45216507 203.31359505 -268.45216507 203.31359505 -266.52560425 203.29777527 C-263.08170756 203.26994362 -259.6381702 203.26650993 -256.19417739 203.26749516 C-252.59196051 203.26436356 -248.98990488 203.2387403 -245.38777161 203.21551514 C-238.57036654 203.17497028 -231.75305709 203.15461805 -224.93555003 203.14154124 C-217.17249729 203.12566601 -209.40960715 203.08724824 -201.64664876 203.04694796 C-185.68114353 202.96456978 -169.71568026 202.91126435 -153.75 202.875 C-151.11 197.595 -148.47 192.315 -145.75 186.875 C-144.45408936 186.90432617 -143.15817871 186.93365234 -141.82299805 186.96386719 C-125.99005932 186.97755046 -113.17964733 182.86374914 -98.5625 177.125 C-96.28649668 176.25886191 -94.0092988 175.39585676 -91.73095703 174.53588867 C-87.19696153 172.81972705 -82.6696846 171.08756024 -78.14794922 169.33935547 C-69.92222815 166.16224793 -61.65885328 163.08908554 -53.38925171 160.02844238 C-51.16707288 159.20312586 -48.94802095 158.36989954 -46.72973633 157.53417969 C-45.72003029 157.15561073 -45.72003029 157.15561073 -44.68992615 156.76939392 C-42.91422955 156.10357309 -41.1394477 155.4353141 -39.36474609 154.7668457 C-36.75 153.875 -36.75 153.875 -34.75 153.875 C-34.75 136.715 -34.75 119.555 -34.75 101.875 C-38.05 101.545 -41.35 101.215 -44.75 100.875 C-58.98689637 97.10116968 -71.3063895 88.24532559 -78.7265625 75.47265625 C-86.27345865 61.20513865 -88.65171514 45.44318599 -84.0625 29.6875 C-78.46636229 14.45356956 -68.16769513 2.4949673 -53.48828125 -4.73046875 C-36.22262511 -11.51137001 -15.48254943 -10.38580956 0 0 Z " fill="#010102" transform="translate(375.75,75.125)"/>
<path d="M0 0 C4.62 0 9.24 0 14 0 C14.08086376 2.93804996 14.1404283 5.87388075 14.1875 8.8125 C14.21263672 9.64587891 14.23777344 10.47925781 14.26367188 11.33789062 C14.27817383 12.54155273 14.27817383 12.54155273 14.29296875 13.76953125 C14.31653442 14.87711792 14.31653442 14.87711792 14.34057617 16.00708008 C13.89826803 18.59529611 12.86468491 19.16649533 11 21 C9.71937861 23.35317801 8.52682386 25.69087794 7.375 28.10546875 C7.03117279 28.81377838 6.68734558 29.52208801 6.33309937 30.25186157 C5.21509153 32.56044984 4.10683498 34.87353633 3 37.1875 C2.2365779 38.77632762 1.47306835 40.36511323 0.70947266 41.95385742 C-0.81685751 45.13451254 -2.33764582 48.31774161 -3.85449219 51.50292969 C-5.1902856 54.30730773 -6.53305013 57.10800069 -7.88769531 59.90332031 C-9.48246923 63.1991864 -11.057364 66.50366077 -12.625 69.8125 C-13.09164062 70.76987061 -13.55828125 71.72724121 -14.0390625 72.71362305 C-15.71021535 76.29778896 -16.97446778 79.08896394 -17.0859375 83.06640625 C-15.49897987 87.35347524 -13.31091292 91.19002883 -11 95.125 C-10.0790797 96.70847129 -9.16225013 98.29433045 -8.25 99.8828125 C-7.84265625 100.57777832 -7.4353125 101.27274414 -7.015625 101.98876953 C-4.86112651 106.25529804 -4.60447331 110.25367977 -5 115 C-6.80292428 120.24219831 -9.20963885 124.03453833 -14 127 C-19.4494793 129.3522975 -24.49455617 129.27067133 -30.31982422 129.22705078 C-31.85732582 129.22748886 -31.85732582 129.22748886 -33.42588806 129.22793579 C-36.80224168 129.22654629 -40.17837259 129.21100274 -43.5546875 129.1953125 C-45.90023681 129.19158103 -48.24578768 129.18873469 -50.59133911 129.18673706 C-56.75626958 129.17911121 -62.92110539 129.15947161 -69.08599854 129.1373291 C-75.380236 129.11684817 -81.6744888 129.10773053 -87.96875 129.09765625 C-100.31254152 129.07622482 -112.65626288 129.04210143 -125 129 C-125.33 123.06 -125.66 117.12 -126 111 C-93 110.67 -60 110.34 -26 110 C-26.83815138 105.80924309 -27.50669849 103.71926157 -29.5625 100.1875 C-30.01753906 99.39730469 -30.47257812 98.60710937 -30.94140625 97.79296875 C-31.29074219 97.20128906 -31.64007813 96.60960937 -32 96 C-33.21696312 95.99120064 -33.21696312 95.99120064 -34.45851135 95.98222351 C-42.12364688 95.9241957 -49.78846109 95.85206175 -57.45330906 95.76428509 C-61.39341224 95.71965574 -65.33341379 95.68038362 -69.27368164 95.65356445 C-73.07994894 95.62745673 -76.8858236 95.58700256 -80.69184685 95.53681374 C-82.14016759 95.52019526 -83.58855616 95.50864982 -85.03695869 95.50238609 C-94.9711499 95.45509759 -102.44837145 95.19692471 -110 88 C-111.7824707 85.34399414 -111.7824707 85.34399414 -113.42578125 82.28515625 C-114.05033203 81.13756836 -114.67488281 79.98998047 -115.31835938 78.80761719 C-115.9835841 77.55951711 -116.64828487 76.31113766 -117.3125 75.0625 C-118.36178203 73.11250354 -119.41389618 71.16405375 -120.46627808 69.21572876 C-121.19411882 67.86763506 -121.9206033 66.5188083 -122.64578247 65.16928101 C-125.2242088 60.38465518 -127.89274266 55.65875591 -130.60546875 50.94921875 C-131.71333896 49.00854727 -132.81954819 47.06693951 -133.92514038 45.12496948 C-134.63538763 43.88602452 -135.35194685 42.65067434 -136.07510376 41.41921997 C-143.48720626 28.77684938 -143.48720626 28.77684938 -142 21 C-139.80065933 18.25468447 -137.97281226 17.1427341 -134.48082542 16.63037872 C-131.17807388 16.46481014 -127.89751137 16.44010213 -124.59057617 16.45410156 C-122.70216507 16.43859505 -122.70216507 16.43859505 -120.77560425 16.42277527 C-117.33170756 16.39494362 -113.8881702 16.39150993 -110.44417739 16.39249516 C-106.84196051 16.38936356 -103.23990488 16.3637403 -99.63777161 16.34051514 C-92.82036654 16.29997028 -86.00305709 16.27961805 -79.18555003 16.26654124 C-71.42249729 16.25066601 -63.65960715 16.21224824 -55.89664876 16.17194796 C-39.93114353 16.08956978 -23.96568026 16.03626435 -8 16 C-5.36 10.72 -2.72 5.44 0 0 Z " fill="#2296F2" transform="translate(230,262)"/>
<path d="M0 0 C5.00550425 3.3893359 7.50553378 6.94276859 8.6796875 12.87109375 C9.22625957 18.15462376 8.51172111 21.3789025 5.6796875 25.87109375 C2.21313414 29.78207703 -0.61577421 32.55651754 -5.90625 33.171875 C-11.43180847 33.19509163 -15.65120476 33.17363337 -20.3203125 29.87109375 C-25.24916506 24.53150347 -26.74523591 20.4996434 -26.56640625 13.3359375 C-26.05833637 8.24717407 -24.07393441 5.59194949 -20.4453125 2.12109375 C-13.90628855 -2.5870035 -7.48431153 -3.64135696 0 0 Z " fill="#2296F1" transform="translate(216.3203125,400.12890625)"/>
<path d="M0 0 C4.16223724 3.7658337 6.28088241 6.75900404 7.0078125 12.28515625 C7.23717288 18.45495035 6.98641497 22.65995679 2.625 27.375 C-2.85891476 32.20606777 -6.18039399 32.72524743 -13.390625 32.65625 C-18.71602075 32.15438024 -21.2772045 29.62114624 -24.6875 25.75 C-28.3338208 20.6181411 -27.93343359 15.51776946 -27.375 9.375 C-25.71200511 4.00590222 -22.24354121 1.01212649 -17.375 -1.625 C-11.5404687 -3.52545937 -5.44084753 -2.61966733 0 0 Z " fill="#2496EF" transform="translate(132.375,400.625)"/>
<path d="M0 0 C3.20547958 1.43024761 5.5354446 3.20433073 8.125 5.5625 C13.05367909 10.03550876 16.16398591 10.4456597 22.81640625 10.4296875 C27.14165144 9.84591208 29.70579146 8.09933753 33.0625 5.41015625 C35.09993903 3.92726212 36.50501943 3.29352713 39 3 C40.75 4.4375 40.75 4.4375 42 6 C40.50233277 9.9531449 38.28868922 11.4302392 34.75 13.625 C33.81671875 14.21539062 32.8834375 14.80578125 31.921875 15.4140625 C26.6552031 18.27271062 21.98737589 19.77256463 16 19 C7.32078572 15.8515402 1.53506676 11.32582365 -4 4 C-2.68 2.68 -1.36 1.36 0 0 Z " fill="#2592E8" transform="translate(310,135)"/>
<path d="M0 0 C0.66 0 1.32 0 2 0 C0.64319732 4.44044513 -1.13353058 6.45164515 -5 9 C-10.43810725 11.36535105 -15.50122147 11.27062142 -21.31982422 11.22705078 C-22.85732582 11.22748886 -22.85732582 11.22748886 -24.42588806 11.22793579 C-27.80224168 11.22654629 -31.17837259 11.21100274 -34.5546875 11.1953125 C-36.90023681 11.19158103 -39.24578768 11.18873469 -41.59133911 11.18673706 C-47.75626958 11.17911121 -53.92110539 11.15947161 -60.08599854 11.1373291 C-66.380236 11.11684817 -72.6744888 11.10773053 -78.96875 11.09765625 C-91.31254152 11.07622482 -103.65626288 11.04210143 -116 11 C-116 10.34 -116 9.68 -116 9 C-115.45462617 8.99576806 -114.90925234 8.99153612 -114.34735203 8.98717594 C-101.09477185 8.88400029 -87.84224676 8.77531928 -74.58976078 8.66066074 C-68.18103358 8.60538119 -61.77230185 8.55195329 -55.36352539 8.50268555 C-49.18436499 8.45511605 -43.00526209 8.40277622 -36.82616997 8.34705925 C-34.46296041 8.32660198 -32.09973506 8.30789462 -29.73649788 8.29092598 C-26.43893826 8.26695635 -23.14148848 8.23689199 -19.84399414 8.20532227 C-18.36261963 8.19668907 -18.36261963 8.19668907 -16.85131836 8.18788147 C-15.95804337 8.17809265 -15.06476837 8.16830383 -14.14442444 8.15821838 C-12.97328645 8.14853956 -12.97328645 8.14853956 -11.77848911 8.1386652 C-9.97524396 8.19191143 -9.97524396 8.19191143 -9 7 C-7.33382885 6.95936168 -5.66611905 6.957279 -4 7 C-4 5.68 -4 4.36 -4 3 C-3.01 3 -2.02 3 -1 3 C-0.67 2.01 -0.34 1.02 0 0 Z " fill="#4296D9" transform="translate(221,380)"/>
<path d="M0 0 C1.20041931 -0.00058411 2.40083862 -0.00116821 3.63763428 -0.00177002 C6.92056547 0.00053584 10.20281072 0.02056688 13.48560548 0.04852581 C16.91954699 0.07356626 20.35350263 0.07588353 23.78752136 0.08062744 C30.28631436 0.09304953 36.78483753 0.12586048 43.28351182 0.1660254 C50.68369063 0.2107672 58.08388248 0.23273616 65.48416293 0.25280714 C80.70338391 0.29459402 95.92233584 0.36493083 111.14135742 0.45410156 C111.14135742 0.78410156 111.14135742 1.11410156 111.14135742 1.45410156 C110.22556427 1.46044947 110.22556427 1.46044947 109.29127026 1.46692562 C94.44406128 1.57017583 79.59689901 1.67880515 64.74977398 1.79344082 C57.56985286 1.8487474 50.38992677 1.9022252 43.20996094 1.95141602 C36.95279142 1.99428926 30.69565812 2.04057519 24.43854457 2.09098011 C21.12466086 2.11755575 17.810785 2.14189926 14.49686241 2.16317558 C10.79977778 2.18720135 7.10278895 2.21725861 3.40576172 2.2487793 C2.30380966 2.25453476 1.2018576 2.26029022 0.06651306 2.26622009 C-0.93889526 2.27600891 -1.94430359 2.28579773 -2.98017883 2.29588318 C-3.85496037 2.30233573 -4.72974192 2.30878828 -5.63103199 2.31543636 C-8.0317728 2.36921334 -8.0317728 2.36921334 -10.85864258 3.45410156 C-11.18864258 4.44410156 -11.51864258 5.43410156 -11.85864258 6.45410156 C-11.19864258 6.78410156 -10.53864258 7.11410156 -9.85864258 7.45410156 C-10.84864258 8.11410156 -11.83864258 8.77410156 -12.85864258 9.45410156 C-12.52864258 10.11410156 -12.19864258 10.77410156 -11.85864258 11.45410156 C-12.28967176 14.25579127 -12.96085897 16.76075073 -13.85864258 19.45410156 C-16.54296763 15.09207336 -17.24242046 11.58937686 -17.45239258 6.60253906 C-15.2588194 -1.33473231 -6.53332633 -0.08298833 0 0 Z " fill="#30A0F5" transform="translate(104.858642578125,278.5458984375)"/>
<path d="M0 0 C4.87315564 2.08849527 7.89694818 5.14680349 10 10 C10.33 10.66 10.66 11.32 11 12 C12.423125 11.9071875 12.423125 11.9071875 13.875 11.8125 C14.90625 11.874375 15.9375 11.93625 17 12 C17.99 13.485 17.99 13.485 19 15 C15.71923351 16.64038325 12.53222528 16.65181662 9 16 C3.58699462 13.12961733 -0.33057696 8.81611774 -4 4 C-2.68 2.68 -1.36 1.36 0 0 Z " fill="#2F8DD7" transform="translate(310,135)"/>
<path d="M0 0 C1.9375 1.125 1.9375 1.125 3 3 C3.38976435 6.11811483 3.50422245 8.11019567 1.9375 10.875 C-1.14071911 12.66235303 -3.52906068 12.43386742 -7 12 C-9.42061048 9.89172636 -9.9127007 8.59654522 -10.375 5.4375 C-10 3 -10 3 -8.9375 1.1875 C-5.90624457 -0.67036623 -3.46577141 -0.37133265 0 0 Z " fill="#2D8EDA" transform="translate(355,100)"/>
<path d="M0 0 C2 1.0625 2 1.0625 3 3 C2.66666667 9.33333333 2.66666667 9.33333333 0 12 C-6.05240175 12.55021834 -6.05240175 12.55021834 -8.9375 10.875 C-10.50422245 8.11019567 -10.38976435 6.11811483 -10 3 C-7.72054654 -1.02256493 -4.21158603 -0.45124136 0 0 Z " fill="#2791E5" transform="translate(317,100)"/>
<path d="M0 0 C0.78375 0.474375 1.5675 0.94875 2.375 1.4375 C6.92189258 3.39736749 11.09893144 3.71910872 16 4 C15.67 5.65 15.34 7.3 15 9 C17.64 8.67 20.28 8.34 23 8 C19.6717942 11.3282058 16.04826947 11.92643723 11.4375 12.25 C8.16125491 12.01172763 5.93376117 11.42242966 3 10 C3 9.67 3 9.34 3 9 C5.31 8.34 7.62 7.68 10 7 C9.36191406 6.82984375 8.72382813 6.6596875 8.06640625 6.484375 C7.24011719 6.24203125 6.41382813 5.9996875 5.5625 5.75 C4.73878906 5.51796875 3.91507812 5.2859375 3.06640625 5.046875 C1 4 1 4 0.21484375 1.890625 C0.14394531 1.26671875 0.07304687 0.6428125 0 0 Z " fill="#2886D0" transform="translate(318,142)"/>
<path d="M0 0 C2.475 0.495 2.475 0.495 5 1 C7.20420729 6.1863701 7.25809613 9.60815943 6 15 C3.9375 16.5 3.9375 16.5 2 17 C2 15.68 2 14.36 2 13 C1.67449498 11.33178677 1.34153937 9.66500443 1 8 C1 5.37886292 1.31292445 3.49064888 2 1 C1.34 0.67 0.68 0.34 0 0 Z " fill="#1E97F5" transform="translate(216,405)"/>
<path d="M0 0 C0 0.66 0 1.32 0 2 C-0.99 2.33 -1.98 2.66 -3 3 C-3.33 3.99 -3.66 4.98 -4 6 C-3.34 6.33 -2.68 6.66 -2 7 C-2.99 7.66 -3.98 8.32 -5 9 C-4.67 9.66 -4.34 10.32 -4 11 C-4.43102919 13.8016897 -5.10221639 16.30664917 -6 19 C-9.00700654 14.11361438 -10.15579479 9.63985049 -9 4 C-5.89503517 0.46379006 -4.75763209 0 0 0 Z " fill="#3295E3" transform="translate(97,279)"/>
<path d="M0 0 C4.62 0 9.24 0 14 0 C14 5.94 14 11.88 14 18 C13.67 18 13.34 18 13 18 C13 12.39 13 6.78 13 1 C9.37 1.33 5.74 1.66 2 2 C0.94227889 4.64430277 -0.09938293 7.29814878 -1 10 C-1.66 9.67 -2.32 9.34 -3 9 C-3.144375 9.598125 -3.28875 10.19625 -3.4375 10.8125 C-3.8872439 12.56150404 -4.42892341 14.28677023 -5 16 C-5.66 16 -6.32 16 -7 16 C-5.34795145 10.29292318 -2.70492463 5.2674848 0 0 Z " fill="#3088CE" transform="translate(230,262)"/>
<path d="M0 0 C0.66 0.33 1.32 0.66 2 1 C1.57847656 1.40089844 1.15695313 1.80179687 0.72265625 2.21484375 C-3.14641621 6.22957541 -4.84649014 9.23645309 -5.10546875 14.84765625 C-4.9545611 17.92729022 -4.43521284 20.26626125 -3 23 C-0.96756452 23.96877057 -0.96756452 23.96877057 1 24 C1.33 25.98 1.66 27.96 2 30 C-2.84093728 27.93122338 -4.99462623 24.79061511 -7 20 C-7.99080325 14.03683228 -7.40148997 9.10223495 -4 4 C-1.8125 1.625 -1.8125 1.625 0 0 Z " fill="#3F95D9" transform="translate(197,401)"/>
<path d="M0 0 C0.99 0 1.98 0 3 0 C1.41980408 5.2063297 -0.77884995 9.98373311 -3.125 14.875 C-3.49753906 15.65875 -3.87007812 16.4425 -4.25390625 17.25 C-5.16618997 19.16813499 -6.08266984 21.08427329 -7 23 C-7.33 23 -7.66 23 -8 23 C-8 21.02 -8 19.04 -8 17 C-7.34 17 -6.68 17 -6 17 C-5.34 13.37 -4.68 9.74 -4 6 C-2.68 5.67 -1.36 5.34 0 5 C0 3.35 0 1.7 0 0 Z " fill="#3495E0" transform="translate(225,308)"/>
<path d="M0 0 C4.72703476 0.4170913 7.95284299 2.45373969 11 6 C13.69822079 10.80243029 14.61075818 15.50317634 14 21 C12.5 24.4375 12.5 24.4375 11 27 C10.67 26.01 10.34 25.02 10 24 C10.33 23.67 10.66 23.34 11 23 C11.63126875 16.66303291 11.22536309 11.52919387 8 6 C5.9648239 4.5181036 5.9648239 4.5181036 4 4 C4 3.34 4 2.68 4 2 C2.68 2 1.36 2 0 2 C0 1.34 0 0.68 0 0 Z " fill="#4093D4" transform="translate(211,399)"/>
<path d="M0 0 C0.66 0 1.32 0 2 0 C1.79503906 0.58007812 1.59007812 1.16015625 1.37890625 1.7578125 C0.54995239 4.16138207 -0.22846583 6.57746266 -1 9 C-1.33 9.99 -1.66 10.98 -2 12 C-2 16.13471175 -0.22415592 18.61754341 1.96875 22.046875 C2.3090625 22.69140625 2.649375 23.3359375 3 24 C2.67 24.66 2.34 25.32 2 26 C1.34 25.67 0.68 25.34 0 25 C0 23.68 0 22.36 0 21 C-0.66 21 -1.32 21 -2 21 C-4.25130406 19.3307404 -4.92993511 18.41764172 -5.3984375 15.625 C-5.39070312 14.75875 -5.38296875 13.8925 -5.375 13 C-5.38273438 12.13375 -5.39046875 11.2675 -5.3984375 10.375 C-4.92494082 7.55258844 -4.10853472 6.84297619 -2 5 C-0.80972016 2.40084462 -0.80972016 2.40084462 0 0 Z " fill="#3793DD" transform="translate(215,331)"/>
<path d="M0 0 C0 0.66 0 1.32 0 2 C-1.32 2 -2.64 2 -4 2 C-4 2.99 -4 3.98 -4 5 C-6.64 5.33 -9.28 5.66 -12 6 C-11.52 1.44 -11.52 1.44 -9.375 -0.375 C-6.06071949 -1.24717908 -3.32887611 -0.64016848 0 0 Z " fill="#2494ED" transform="translate(345,145)"/>
<path d="M0 0 C2.97 0.495 2.97 0.495 6 1 C6 1.66 6 2.32 6 3 C6.94875 2.938125 7.8975 2.87625 8.875 2.8125 C9.90625 2.874375 10.9375 2.93625 12 3 C12.99 4.485 12.99 4.485 14 6 C10.7944465 7.60277675 7.46745347 7.63044609 4 7 C1.5 4.625 1.5 4.625 0 2 C0 1.34 0 0.68 0 0 Z " fill="#2495F0" transform="translate(315,144)"/>
<path d="M0 0 C0.33 0.99 0.66 1.98 1 3 C1.66 3 2.32 3 3 3 C3 2.34 3 1.68 3 1 C5.97 1.495 5.97 1.495 9 2 C9 3.98 9 5.96 9 8 C5.625 8.125 5.625 8.125 2 8 C0 6 0 6 -0.125 2.875 C-0.08375 1.92625 -0.0425 0.9775 0 0 Z " fill="#2495F0" transform="translate(347,103)"/>
<path d="M0 0 C1.98 0 3.96 0 6 0 C5.52269162 1.4589426 5.04308958 2.91713496 4.5625 4.375 C4.29566406 5.18710937 4.02882812 5.99921875 3.75390625 6.8359375 C3 9 3 9 2 11 C-0.5625 11.625 -0.5625 11.625 -3 12 C-2.67 10.02 -2.34 8.04 -2 6 C-1.01 6 -0.02 6 1 6 C0.67 4.02 0.34 2.04 0 0 Z " fill="#2B96EB" transform="translate(227,297)"/>
<path d="M0 0 C0.99 0.33 1.98 0.66 3 1 C3 5 3 5 1.8125 6.75 C-0.60905713 8.4200394 -2.11693182 8.36962413 -5 8 C-7 6 -7 6 -7.125 3.375 C-7.08375 2.59125 -7.0425 1.8075 -7 1 C-5 2 -5 2 -4 4 C-2.68 2.68 -1.36 1.36 0 0 Z " fill="#2196F2" transform="translate(316,103)"/>
<path d="M0 0 C0 0.33 0 0.66 0 1 C-2.31 1.66 -4.62 2.32 -7 3 C-7 4.98 -7 6.96 -7 9 C-5.02 9.66 -3.04 10.32 -1 11 C-0.67 10.01 -0.34 9.02 0 8 C0.66 8 1.32 8 2 8 C1.34 9.32 0.68 10.64 0 12 C-6.3782235 12.36103152 -6.3782235 12.36103152 -8.9375 10.875 C-10.50422245 8.11019567 -10.38976435 6.11811483 -10 3 C-7.7109263 -1.03954182 -4.21983723 -0.23885871 0 0 Z " fill="#368CD0" transform="translate(317,100)"/>
<path d="M0 0 C2.31 0 4.62 0 7 0 C6.0409375 0.433125 6.0409375 0.433125 5.0625 0.875 C2.84793921 1.82823451 2.84793921 1.82823451 2 4 C1.77049681 6.204364 1.58924067 8.41392173 1.4375 10.625 C1.35371094 11.81351562 1.26992187 13.00203125 1.18359375 14.2265625 C1.12300781 15.14179688 1.06242188 16.05703125 1 17 C4.96 17 8.92 17 13 17 C13 17.33 13 17.66 13 18 C8.71 18 4.42 18 0 18 C0 12.06 0 6.12 0 0 Z " fill="#060C1B" transform="translate(244,262)"/>
<path d="M0 0 C3.7952131 1.49097658 5.61042731 3.75700849 8 7 C7.01 7 6.02 7 5 7 C5 6.34 5 5.68 5 5 C2.53155755 4.2861014 2.53155755 4.2861014 0 4 C-0.33 5.32 -0.66 6.64 -1 8 C-1.99 6.35 -2.98 4.7 -4 3 C-2.68 2.01 -1.36 1.02 0 0 Z " fill="#2E8AD2" transform="translate(310,135)"/>
<path d="M0 0 C0.99 0 1.98 0 3 0 C3.66 1.32 4.32 2.64 5 4 C5.66 4 6.32 4 7 4 C6.67 5.32 6.34 6.64 6 8 C6.99 8.33 7.98 8.66 9 9 C9 11.31 9 13.62 9 16 C6.40962402 12.79509037 4.62056844 9.44649547 2.8125 5.75 C2.01779297 4.13351562 2.01779297 4.13351562 1.20703125 2.484375 C0.80871094 1.66453125 0.41039063 0.8446875 0 0 Z " fill="#3B96E0" transform="translate(93,300)"/>
<path d="M0 0 C2.68392236 2.56723008 3.93433701 3.92495946 4.16796875 7.75 C4.17441406 8.8225 4.18085938 9.895 4.1875 11 C4.20167969 12.0725 4.21585938 13.145 4.23046875 14.25 C4 17 4 17 2 19 C2 14.38 2 9.76 2 5 C1.01 5.33 0.02 5.66 -1 6 C-0.67 4.02 -0.34 2.04 0 0 Z M-3 6 C-2.01 6.495 -2.01 6.495 -1 7 C-1.99 7.495 -1.99 7.495 -3 8 C-3 7.34 -3 6.68 -3 6 Z " fill="#3495E4" transform="translate(135,405)"/>
<path d="M0 0 C1.98 0 3.96 0 6 0 C2.92184858 3.29043773 1.0347457 4.86823183 -3.59375 5.16796875 C-4.5528125 5.17441406 -5.511875 5.18085938 -6.5 5.1875 C-7.93859375 5.20876953 -7.93859375 5.20876953 -9.40625 5.23046875 C-12 5 -12 5 -15 3 C-14.00419922 3.01740234 -14.00419922 3.01740234 -12.98828125 3.03515625 C-6.43693213 3.11893409 -6.43693213 3.11893409 0 2 C0 1.34 0 0.68 0 0 Z " fill="#3D95D9" transform="translate(214,428)"/>
<path d="M0 0 C0.66 0 1.32 0 2 0 C0.64908476 4.42117715 -1.1650145 6.443343 -5 9 C-7.3125 9.75 -7.3125 9.75 -9 10 C-9 9.01 -9 8.02 -9 7 C-7.35 7 -5.7 7 -4 7 C-4 5.68 -4 4.36 -4 3 C-3.01 3 -2.02 3 -1 3 C-0.67 2.01 -0.34 1.02 0 0 Z " fill="#3A97DF" transform="translate(221,380)"/>
<path d="M0 0 C2.22065113 1.34825247 2.82479124 2.67237736 3.75 5.0625 C1.77 6.0525 1.77 6.0525 -0.25 7.0625 C-0.25 5.4125 -0.25 3.7625 -0.25 2.0625 C-2.23 3.3825 -4.21 4.7025 -6.25 6.0625 C-6.91 5.7325 -7.57 5.4025 -8.25 5.0625 C-2.90363128 0.08065642 -2.90363128 0.08065642 0 0 Z " fill="#3286C9" transform="translate(348.25,137.9375)"/>
<path d="M0 0 C0.99 0.33 1.98 0.66 3 1 C-0.99613521 4.71069698 -3.37082652 6.59791618 -9 7 C-8.67 6.34 -8.34 5.68 -8 5 C-6.68 5 -5.36 5 -4 5 C-4 4.01 -4 3.02 -4 2 C-2.68 2 -1.36 2 0 2 C0 1.34 0 0.68 0 0 Z " fill="#3C91D7" transform="translate(133,426)"/>
<path d="M0 0 C0.66 0 1.32 0 2 0 C2 0.66 2 1.32 2 2 C3.32 1.67 4.64 1.34 6 1 C6 1.66 6 2.32 6 3 C6.66 3.33 7.32 3.66 8 4 C8.625 6.0625 8.625 6.0625 9 8 C4.58848129 6.65203595 2.61191481 4.77276583 0 1 C0 0.67 0 0.34 0 0 Z " fill="#3B99E3" transform="translate(119,347)"/>
<path d="M0 0 C0.66 0.99 1.32 1.98 2 3 C1.67 3.99 1.34 4.98 1 6 C0.34 5.67 -0.32 5.34 -1 5 C-1.144375 5.598125 -1.28875 6.19625 -1.4375 6.8125 C-1.8872439 8.56150404 -2.42892341 10.28677023 -3 12 C-3.66 12 -4.32 12 -5 12 C-3.68938409 7.76570244 -2.05643741 3.92592596 0 0 Z " fill="#3A93D7" transform="translate(228,266)"/>
<path d="M0 0 C-0.33 0.66 -0.66 1.32 -1 2 C0.32 2.33 1.64 2.66 3 3 C-1.54805635 3.17835515 -4.8794254 2.99785435 -9 1 C-9 0.67 -9 0.34 -9 0 C-3.375 -1.125 -3.375 -1.125 0 0 Z " fill="#237CBD" transform="translate(330,151)"/>
<path d="M0 0 C2.5 1.3125 2.5 1.3125 5 3 C5 3.99 5 4.98 5 6 C3.35 6 1.7 6 0 6 C-0.38218767 4.34385343 -0.71395102 2.67542976 -1 1 C-0.67 0.67 -0.34 0.34 0 0 Z " fill="#2297F3" transform="translate(310,137)"/>
<path d="M0 0 C-0.8125 2.4375 -0.8125 2.4375 -2 5 C-2.99 5.33 -3.98 5.66 -5 6 C-5 4.68 -5 3.36 -5 2 C-2 0 -2 0 0 0 Z " fill="#1B97FA" transform="translate(215,424)"/>
<path d="M0 0 C0.99 0 1.98 0 3 0 C1.77263971 4.15414253 0.672336 6.43688534 -2 10 C-1.34 6.7 -0.68 3.4 0 0 Z " fill="#4692D4" transform="translate(239,279)"/>
</svg>
