<?xml version="1.0" encoding="UTF-8"?>
<svg version="1.1" xmlns="http://www.w3.org/2000/svg" width="500" height="500">
<path d="M0 0 C12.3145217 8.85492363 20.84074163 20.48839494 23.91796875 35.5234375 C26.16923522 52.52365536 23.07461883 67.87192468 12.7734375 81.7421875 C5.97733602 89.81889765 -1.79150476 95.2427434 -11.56640625 98.9453125 C-12.5959845 99.34580811 -12.5959845 99.34580811 -13.6463623 99.75439453 C-15.31632812 100.40289671 -16.98983483 101.04226877 -18.6640625 101.6796875 C-19.96503572 124.71262722 -20.92614206 147.73932659 -21.51373196 170.80188084 C-21.7942269 181.51972917 -22.17531075 192.21423751 -22.81323242 202.91723633 C-23.53691634 215.29585664 -23.991448 227.65789111 -24.03515625 240.05859375 C-24.04046584 241.56500703 -24.04046584 241.56500703 -24.0458827 243.10185289 C-23.98669966 271.50788588 -19.04854834 291.33004954 1.25682068 311.86717224 C12.13442475 322.45862573 23.90703042 331.97713631 36.3359375 340.6796875 C34.73058463 344.09028153 32.93074849 346.29761234 30.2109375 348.9296875 C29.48648437 349.63609375 28.76203125 350.3425 28.015625 351.0703125 C27.46132813 351.60140625 26.90703125 352.1325 26.3359375 352.6796875 C19.88903111 347.36954496 14.03644313 341.50841866 8.15234375 335.59375 C7.08639641 334.52593405 6.02022545 333.45834128 4.95384216 332.39096069 C2.16843611 329.60176432 -0.61395179 326.8095765 -3.39569092 324.01672363 C-6.24307314 321.15905175 -9.09334236 318.30426248 -11.94335938 315.44921875 C-17.51973331 309.86216908 -23.09291744 304.27195116 -28.6640625 298.6796875 C-29.7876615 299.63220885 -30.90977085 300.5864876 -32.03125 301.54150391 C-32.96880127 302.33834091 -32.96880127 302.33834091 -33.92529297 303.15127563 C-36.01395749 304.98725193 -37.84359604 306.95356579 -39.6640625 309.0546875 C-43.70673936 313.63546811 -47.85046373 318.10698933 -52.0390625 322.5546875 C-61.37451713 332.48275874 -70.56963334 342.52985545 -79.6640625 352.6796875 C-88.11053175 346.52934581 -88.11053175 346.52934581 -91.6640625 342.6796875 C-90.24667761 339.42761658 -88.53879838 337.36607683 -85.9765625 334.9296875 C-83.22174313 332.2494571 -80.60481391 329.53387183 -78.1015625 326.6171875 C-75.87761809 324.03015012 -73.59795982 321.57021917 -71.1640625 319.1796875 C-68.11978317 316.18276363 -65.30560697 313.04235759 -62.51171875 309.8125 C-60.60053982 307.60636111 -58.67100531 305.41907793 -56.7265625 303.2421875 C-56.01802124 302.42616562 -55.30947998 301.61014374 -54.57946777 300.76939392 C-52.44615587 298.40884847 -50.16417109 296.37160865 -47.7322998 294.32203674 C-40.28756375 287.75579408 -34.94527658 282.00487938 -33.89833832 271.83833218 C-33.64615532 266.19880631 -33.73101584 260.5981138 -33.8828125 254.95703125 C-33.89023328 252.51511235 -33.89055779 250.07316263 -33.88415527 247.63124084 C-33.88621594 241.25892902 -33.98349324 234.89163944 -34.10186768 228.52056885 C-34.20580006 221.99771518 -34.21797145 215.474727 -34.23828125 208.95117188 C-34.29131962 196.19233213 -34.44201318 183.43664976 -34.6640625 170.6796875 C-35.32814967 170.92898356 -35.99223684 171.17827963 -36.67644787 171.43513012 C-60.7644202 180.47641993 -60.7644202 180.47641993 -70.68359375 184.13671875 C-71.64456467 184.49183029 -72.60553558 184.84694183 -73.59562683 185.21281433 C-75.57154327 185.94285178 -77.5475596 186.67261888 -79.52368164 187.40209961 C-82.52189843 188.50892375 -85.51976056 189.61670446 -88.51757812 190.72460938 C-90.46872981 191.44536716 -92.41990095 192.16607228 -94.37109375 192.88671875 C-95.24522415 193.20969437 -96.11935455 193.53266998 -97.01997375 193.86543274 C-97.8626329 194.17643417 -98.70529205 194.48743561 -99.57348633 194.80786133 C-100.39531403 195.11535309 -101.21714172 195.42284485 -102.06387329 195.73965454 C-103.93535432 196.4162414 -105.82133971 197.05318457 -107.71517944 197.66439819 C-108.71497833 197.99517365 -109.71477722 198.3259491 -110.74487305 198.66674805 C-111.66133102 198.95736618 -112.577789 199.24798431 -113.52201843 199.54740906 C-114.22889297 199.92106094 -114.93576752 200.29471283 -115.6640625 200.6796875 C-115.9940625 201.9996875 -116.3240625 203.3196875 -116.6640625 204.6796875 C-122.6040625 204.6796875 -128.5440625 204.6796875 -134.6640625 204.6796875 C-135.20546875 206.48759766 -135.20546875 206.48759766 -135.7578125 208.33203125 C-137.73866055 214.26416207 -140.48113114 219.78494161 -143.24752808 225.38400269 C-144.81970401 228.5714372 -146.36673212 231.77108785 -147.91796875 234.96875 C-148.54957928 236.26858513 -149.18125212 237.56838999 -149.81298828 238.86816406 C-150.43002949 240.13866388 -151.04705456 241.40917153 -151.6640625 242.6796875 C-152.2401123 243.86530273 -152.81616211 245.05091797 -153.40966797 246.27246094 C-154.99064852 249.54625089 -156.54931455 252.82969676 -158.1015625 256.1171875 C-158.57980469 257.09824463 -159.05804688 258.07930176 -159.55078125 259.09008789 C-161.27013926 262.76670455 -162.63270023 265.68738526 -162.76171875 269.76953125 C-161.1518786 274.0376128 -158.9703725 277.87755408 -156.6640625 281.8046875 C-155.7431422 283.38815879 -154.82631263 284.97401795 -153.9140625 286.5625 C-153.50671875 287.25746582 -153.099375 287.95243164 -152.6796875 288.66845703 C-150.52518901 292.93498554 -150.26853581 296.93336727 -150.6640625 301.6796875 C-152.46698678 306.92188581 -154.87370135 310.71422583 -159.6640625 313.6796875 C-165.1135418 316.031985 -170.15861867 315.95035883 -175.98388672 315.90673828 C-177.52138832 315.90717636 -177.52138832 315.90717636 -179.08995056 315.90762329 C-182.46630418 315.90623379 -185.84243509 315.89069024 -189.21875 315.875 C-191.56429931 315.87126853 -193.90985018 315.86842219 -196.25540161 315.86642456 C-202.42033208 315.85879871 -208.58516789 315.83915911 -214.75006104 315.8170166 C-221.0442985 315.79653567 -227.3385513 315.78741803 -233.6328125 315.77734375 C-245.97660402 315.75591232 -258.32032538 315.72178893 -270.6640625 315.6796875 C-270.6640625 309.7396875 -270.6640625 303.7996875 -270.6640625 297.6796875 C-221.6590625 297.1846875 -221.6590625 297.1846875 -171.6640625 296.6796875 C-172.50221388 292.48893059 -173.17076099 290.39894907 -175.2265625 286.8671875 C-175.68160156 286.07699219 -176.13664062 285.28679687 -176.60546875 284.47265625 C-177.12947266 283.58513672 -177.12947266 283.58513672 -177.6640625 282.6796875 C-178.46284317 282.67160065 -179.26162384 282.66351379 -180.08460999 282.65518188 C-187.63195241 282.57706905 -195.17910614 282.48972872 -202.72622013 282.39216042 C-206.60577417 282.34232775 -210.48530268 282.29599719 -214.36499023 282.2578125 C-218.11282738 282.22079427 -221.86044402 282.17439078 -225.60809135 282.12162399 C-227.03409371 282.10316751 -228.46014319 282.08802766 -229.88621712 282.07634354 C-231.89176959 282.05933112 -233.89719719 282.02916698 -235.90258789 281.99853516 C-237.04176163 281.98521149 -238.18093536 281.97188782 -239.35462952 281.9581604 C-244.86717435 281.49430621 -249.93602225 280.32689231 -254.11816406 276.5234375 C-257.84025267 272.08420611 -260.34319439 266.77838021 -263.0390625 261.6796875 C-264.08127051 259.73622788 -265.12689094 257.79462917 -266.17266846 255.85308838 C-266.89524753 254.51064118 -267.6162174 253.16732666 -268.33563232 251.82318115 C-270.89975785 247.04574435 -273.55897833 242.33070724 -276.265625 237.6328125 C-277.37438703 235.69113282 -278.48155853 233.74855538 -279.5881958 231.80566406 C-280.29894715 230.56633499 -281.01593159 229.33055743 -281.73944092 228.09863281 C-289.15127472 215.45656809 -289.15127472 215.45656809 -287.6640625 207.6796875 C-285.46472183 204.93437197 -283.63687476 203.8224216 -280.14488792 203.31006622 C-276.84213638 203.14449764 -273.56157387 203.11978963 -270.25463867 203.13378906 C-268.36622757 203.11828255 -268.36622757 203.11828255 -266.43966675 203.10246277 C-262.99577006 203.07463112 -259.5522327 203.07119743 -256.10823989 203.07218266 C-252.50602301 203.06905106 -248.90396738 203.0434278 -245.30183411 203.02020264 C-238.48442904 202.97965778 -231.66711959 202.95930555 -224.84961253 202.94622874 C-217.08655979 202.93035351 -209.32366965 202.89193574 -201.56071126 202.85163546 C-185.59520603 202.76925728 -169.62974276 202.71595185 -153.6640625 202.6796875 C-151.0240625 197.3996875 -148.3840625 192.1196875 -145.6640625 186.6796875 C-144.33552246 186.69596191 -143.00698242 186.71223633 -141.63818359 186.72900391 C-126.85557972 186.64259961 -114.96343708 183.4097606 -101.2890625 178.0546875 C-99.26324879 177.28877078 -97.23628832 176.52588106 -95.20825195 175.76586914 C-91.06808214 174.20859801 -86.93527564 172.63388042 -82.80810547 171.04248047 C-74.06134986 167.67099054 -65.27842967 164.39646959 -56.4989624 161.11138916 C-53.88894636 160.13122659 -51.28217061 159.1429005 -48.67626953 158.15185547 C-47.47622536 157.69715126 -47.47622536 157.69715126 -46.25193787 157.23326111 C-44.76336311 156.6689549 -43.27572185 156.10217763 -41.78919983 155.53248596 C-36.88881047 153.6796875 -36.88881047 153.6796875 -34.6640625 153.6796875 C-34.6640625 136.5196875 -34.6640625 119.3596875 -34.6640625 101.6796875 C-37.9640625 101.3496875 -41.2640625 101.0196875 -44.6640625 100.6796875 C-58.90095887 96.90585718 -71.220452 88.05001309 -78.640625 75.27734375 C-86.17795779 61.02790583 -88.53460892 45.30783141 -84.0390625 29.5546875 C-78.52541238 14.51222046 -67.9582633 2.06047966 -53.43359375 -4.859375 C-35.97568132 -11.67500493 -15.80216356 -10.27907727 0 0 Z " fill="#F7F8F8" transform="translate(375.6640625,75.3203125)"/>
<path d="M0 0 C4.62 0 9.24 0 14 0 C14 5.61 14 11.22 14 17 C18.62 17 23.24 17 28 17 C28.33 16.01 28.66 15.02 29 14 C29 15.32 29 16.64 29 18 C23.06 18 17.12 18 11 18 C10.45859375 19.80791016 10.45859375 19.80791016 9.90625 21.65234375 C7.92540195 27.58447457 5.18293136 33.10525411 2.41653442 38.70431519 C0.84435849 41.8917497 -0.70266962 45.09140035 -2.25390625 48.2890625 C-2.88551678 49.58889763 -3.51718962 50.88870249 -4.14892578 52.18847656 C-4.76596699 53.45897638 -5.38299206 54.72948403 -6 56 C-6.5760498 57.18561523 -7.15209961 58.37123047 -7.74560547 59.59277344 C-9.32658602 62.86656339 -10.88525205 66.15000926 -12.4375 69.4375 C-12.91574219 70.41855713 -13.39398438 71.39961426 -13.88671875 72.41040039 C-15.60607676 76.08701705 -16.96863773 79.00769776 -17.09765625 83.08984375 C-15.4878161 87.3579253 -13.30631 91.19786658 -11 95.125 C-10.0790797 96.70847129 -9.16225013 98.29433045 -8.25 99.8828125 C-7.84265625 100.57777832 -7.4353125 101.27274414 -7.015625 101.98876953 C-4.86112651 106.25529804 -4.60447331 110.25367977 -5 115 C-6.80292428 120.24219831 -9.20963885 124.03453833 -14 127 C-19.4494793 129.3522975 -24.49455617 129.27067133 -30.31982422 129.22705078 C-31.85732582 129.22748886 -31.85732582 129.22748886 -33.42588806 129.22793579 C-36.80224168 129.22654629 -40.17837259 129.21100274 -43.5546875 129.1953125 C-45.90023681 129.19158103 -48.24578768 129.18873469 -50.59133911 129.18673706 C-56.75626958 129.17911121 -62.92110539 129.15947161 -69.08599854 129.1373291 C-75.380236 129.11684817 -81.6744888 129.10773053 -87.96875 129.09765625 C-100.31254152 129.07622482 -112.65626288 129.04210143 -125 129 C-125 123.06 -125 117.12 -125 111 C-75.995 110.505 -75.995 110.505 -26 110 C-26.83815138 105.80924309 -27.50669849 103.71926157 -29.5625 100.1875 C-30.01753906 99.39730469 -30.47257812 98.60710937 -30.94140625 97.79296875 C-31.29074219 97.20128906 -31.64007813 96.60960937 -32 96 C-33.19817101 95.98786972 -33.19817101 95.98786972 -34.42054749 95.97549438 C-41.96788991 95.89738155 -49.51504364 95.81004122 -57.06215763 95.71247292 C-60.94171167 95.66264025 -64.82124018 95.61630969 -68.70092773 95.578125 C-72.44876488 95.54110677 -76.19638152 95.49470328 -79.94402885 95.44193649 C-81.37003121 95.42348001 -82.79608069 95.40834016 -84.22215462 95.39665604 C-86.22770709 95.37964362 -88.23313469 95.34947948 -90.23852539 95.31884766 C-91.37769913 95.30552399 -92.51687286 95.29220032 -93.69056702 95.2784729 C-99.20311185 94.81461871 -104.27195975 93.64720481 -108.45410156 89.84375 C-112.17619017 85.40451861 -114.67913189 80.09869271 -117.375 75 C-118.41720801 73.05654038 -119.46282844 71.11494167 -120.50860596 69.17340088 C-121.23118503 67.83095368 -121.9521549 66.48763916 -122.67156982 65.14349365 C-125.23569535 60.36605685 -127.89491583 55.65101974 -130.6015625 50.953125 C-131.71032453 49.01144532 -132.81749603 47.06886788 -133.9241333 45.12597656 C-134.63488465 43.88664749 -135.35186909 42.65086993 -136.07537842 41.41894531 C-143.48721222 28.77688059 -143.48721222 28.77688059 -142 21 C-139.80065933 18.25468447 -137.97281226 17.1427341 -134.48082542 16.63037872 C-131.17807388 16.46481014 -127.89751137 16.44010213 -124.59057617 16.45410156 C-122.70216507 16.43859505 -122.70216507 16.43859505 -120.77560425 16.42277527 C-117.33170756 16.39494362 -113.8881702 16.39150993 -110.44417739 16.39249516 C-106.84196051 16.38936356 -103.23990488 16.3637403 -99.63777161 16.34051514 C-92.82036654 16.29997028 -86.00305709 16.27961805 -79.18555003 16.26654124 C-71.42249729 16.25066601 -63.65960715 16.21224824 -55.89664876 16.17194796 C-39.93114353 16.08956978 -23.96568026 16.03626435 -8 16 C-5.36 10.72 -2.72 5.44 0 0 Z " fill="#2194F0" transform="translate(230,262)"/>
<path d="M0 0 C4.19530084 2.84072954 6.8974593 5.75779426 8.34375 10.66015625 C9.19941256 16.29160984 8.51843809 21.1290733 6.0546875 26.24609375 C2.41413007 30.26986776 -0.64648231 32.52520583 -6.0078125 33.21875 C-11.46644649 33.38933231 -15.73712383 33.11286135 -20.3203125 29.87109375 C-25.1922661 24.59314401 -26.79351215 20.50376475 -26.63671875 13.40625 C-25.99966565 8.30196036 -23.60630812 5.09114087 -19.8828125 1.55859375 C-13.46053264 -2.6707125 -7.10619738 -3.45739233 0 0 Z " fill="#2292EA" transform="translate(216.3203125,400.12890625)"/>
<path d="M0 0 C4.16223724 3.7658337 6.28088241 6.75900404 7.0078125 12.28515625 C7.23717288 18.45495035 6.98641497 22.65995679 2.625 27.375 C-2.85891476 32.20606777 -6.18039399 32.72524743 -13.390625 32.65625 C-18.71602075 32.15438024 -21.2772045 29.62114624 -24.6875 25.75 C-28.3338208 20.6181411 -27.93343359 15.51776946 -27.375 9.375 C-25.71200511 4.00590222 -22.24354121 1.01212649 -17.375 -1.625 C-11.5404687 -3.52545937 -5.44084753 -2.61966733 0 0 Z " fill="#2196F2" transform="translate(132.375,400.625)"/>
<path d="M0 0 C0.99 0.33 1.98 0.66 3 1 C3 1.99 3 2.98 3 4 C3.66 4 4.32 4 5 4 C5 4.99 5 5.98 5 7 C5.99 7.495 5.99 7.495 7 8 C6.34 10.31 5.68 12.62 5 15 C-27.34 15 -59.68 15 -93 15 C-93 19.62 -93 24.24 -93 29 C-58.35 29 -23.7 29 12 29 C12 28.34 12 27.68 12 27 C14.31 26.67 16.62 26.34 19 26 C16.41210702 29.1629803 13.91980114 29.98596309 10 31 C6.55823449 31.27572362 3.13132745 31.25289356 -0.31982422 31.22705078 C-1.85732582 31.22748886 -1.85732582 31.22748886 -3.42588806 31.22793579 C-6.80224168 31.22654629 -10.17837259 31.21100274 -13.5546875 31.1953125 C-15.90023681 31.19158103 -18.24578768 31.18873469 -20.59133911 31.18673706 C-26.75626958 31.17911121 -32.92110539 31.15947161 -39.08599854 31.1373291 C-45.380236 31.11684817 -51.6744888 31.10773053 -57.96875 31.09765625 C-70.31254152 31.07622482 -82.65626288 31.04210143 -95 31 C-95 25.06 -95 19.12 -95 13 C-45.995 12.505 -45.995 12.505 4 12 C3.11533974 7.5766987 2.27329133 5.65703388 0 2 C0 1.34 0 0.68 0 0 Z " fill="#206397" transform="translate(200,360)"/>
<path d="M0 0 C4.01199253 1.79106809 6.79747482 4.3914221 10 7.34375 C13.68750704 10.39746676 16.83274768 11.55248595 21.703125 11.4609375 C27.08385165 10.38113181 32.16066637 6.83933363 36 3 C38 3.125 38 3.125 40 4 C41.125 6.0546875 41.125 6.0546875 42 8 C34.80794947 13.56590675 28.83469912 17.99014823 19.75 19.5625 C9.38035696 18.00705354 2.16921857 12.16514223 -4 4 C-2.68 2.68 -1.36 1.36 0 0 Z " fill="#2B95EA" transform="translate(310,135)"/>
<path d="M0 0 C0.99 0.33 1.98 0.66 3 1 C3 1.99 3 2.98 3 4 C3.66 4 4.32 4 5 4 C5 4.99 5 5.98 5 7 C5.99 7.495 5.99 7.495 7 8 C6.34 10.31 5.68 12.62 5 15 C-27.34 15 -59.68 15 -93 15 C-93 19.62 -93 24.24 -93 29 C-93.33 29 -93.66 29 -94 29 C-94.33 23.72 -94.66 18.44 -95 13 C-45.995 12.505 -45.995 12.505 4 12 C3.11533974 7.5766987 2.27329133 5.65703388 0 2 C0 1.34 0 0.68 0 0 Z " fill="#2D7DBC" transform="translate(200,360)"/>
<path d="M0 0 C0.33 1.32 0.66 2.64 1 4 C0.35192855 4.00423194 -0.2961429 4.00846388 -0.96385288 4.01282406 C-16.747125 4.11621688 -32.5303509 4.22486738 -48.31354618 4.33933926 C-55.94623888 4.39457119 -63.57893626 4.44803642 -71.21166992 4.49731445 C-77.86587309 4.54027946 -84.52004325 4.58658798 -91.17419523 4.63687855 C-94.69612186 4.66338058 -98.21804236 4.68823059 -101.7400074 4.70907402 C-105.67575569 4.73242901 -109.61142663 4.76325 -113.54711914 4.79467773 C-115.29068443 4.80331093 -115.29068443 4.80331093 -117.06947327 4.81211853 C-122.48023667 4.86124113 -127.66976386 5.04591914 -133 6 C-131.27784635 3.83132857 -130.39366133 3.06353992 -127.61621571 2.61523914 C-126.66769073 2.61063018 -125.71916574 2.60602121 -124.74189758 2.60127258 C-123.65234772 2.58873444 -122.56279785 2.57619629 -121.44023132 2.5632782 C-120.24477188 2.56471329 -119.04931244 2.56614838 -117.81762695 2.56762695 C-115.92965393 2.55233948 -115.92965393 2.55233948 -114.00354004 2.53674316 C-110.5513256 2.50912686 -107.09927587 2.49988247 -103.64696527 2.49388909 C-100.03941312 2.48451737 -96.4319846 2.45831503 -92.82450867 2.43388367 C-85.99289295 2.39018173 -79.16130117 2.36165754 -72.32958812 2.33856028 C-64.5520865 2.31152834 -56.77470903 2.26761566 -48.99729598 2.22227156 C-32.99826108 2.12937243 -16.99920283 2.05771591 -1 2 C-0.67 1.34 -0.34 0.68 0 0 Z " fill="#2C6B9C" transform="translate(223,276)"/>
<path d="M0 0 C1.9375 1.125 1.9375 1.125 3 3 C3.38976435 6.11811483 3.50422245 8.11019567 1.9375 10.875 C-1.14071911 12.66235303 -3.52906068 12.43386742 -7 12 C-9.42061048 9.89172636 -9.9127007 8.59654522 -10.375 5.4375 C-10 3 -10 3 -8.9375 1.1875 C-5.90624457 -0.67036623 -3.46577141 -0.37133265 0 0 Z " fill="#3894DE" transform="translate(355,100)"/>
<path d="M0 0 C2 1.0625 2 1.0625 3 3 C2.66666667 9.33333333 2.66666667 9.33333333 0 12 C-6.05240175 12.55021834 -6.05240175 12.55021834 -8.9375 10.875 C-10.50422245 8.11019567 -10.38976435 6.11811483 -10 3 C-7.72054654 -1.02256493 -4.21158603 -0.45124136 0 0 Z " fill="#2E96E8" transform="translate(317,100)"/>
<path d="M0 0 C3.75044897 4.15832273 3.49589913 7.69299601 3.3515625 13.0859375 C2.71659807 18.34908713 0.22243709 20.92309114 -3.625 24.3125 C-8.73493757 27.94324512 -13.8798283 27.59845225 -20 27 C-23.19999014 25.73794781 -25.42518973 24.14962054 -27 21 C-24.36 21.66 -21.72 22.32 -19 23 C-19 23.66 -19 24.32 -19 25 C-15.37 25 -11.74 25 -8 25 C-8 24.01 -8 23.02 -8 22 C-7.34 22 -6.68 22 -6 22 C-5.67 21.34 -5.34 20.68 -5 20 C-3.68 20 -2.36 20 -1 20 C0.05619003 15.71702469 0.11702092 11.57014354 0.0625 7.1875 C0.05798828 6.49462891 0.05347656 5.80175781 0.04882812 5.08789062 C0.03713156 3.39188932 0.01919924 1.69593297 0 0 Z " fill="#2675B3" transform="translate(136,406)"/>
<path d="M0 0 C4.62 0 9.24 0 14 0 C14 5.61 14 11.22 14 17 C18.62 17 23.24 17 28 17 C28.33 16.01 28.66 15.02 29 14 C29 15.32 29 16.64 29 18 C23.06 18 17.12 18 11 18 C10.67 19.65 10.34 21.3 10 23 C9.67 23 9.34 23 9 23 C9.33 20.69 9.66 18.38 10 16 C10.99 16 11.98 16 13 16 C13 11.38 13 6.76 13 2 C8.38 2.66 3.76 3.32 -1 4 C-0.67 2.68 -0.34 1.36 0 0 Z " fill="#366D9A" transform="translate(230,262)"/>
<path d="M0 0 C4.2742558 1.5830577 6.26531794 4.50568404 9 8 C7.35 7.67 5.7 7.34 4 7 C4 6.34 4 5.68 4 5 C3.01 5.495 3.01 5.495 2 6 C4.07143201 10.03384128 5.96615872 11.92856799 10 14 C9.67 14.66 9.34 15.32 9 16 C3.59160025 12.83410746 -0.04174791 8.82485166 -4 4 C-2.68 2.68 -1.36 1.36 0 0 Z " fill="#3B97DF" transform="translate(310,135)"/>
<path d="M0 0 C0.94875 0.04125 1.8975 0.0825 2.875 0.125 C2.875 1.115 2.875 2.105 2.875 3.125 C3.535 3.125 4.195 3.125 4.875 3.125 C4.875 3.785 4.875 4.445 4.875 5.125 C4.215 5.125 3.555 5.125 2.875 5.125 C2.545 6.445 2.215 7.765 1.875 9.125 C1.875 8.465 1.875 7.805 1.875 7.125 C-0.435 7.455 -2.745 7.785 -5.125 8.125 C-5.25 5.25 -5.25 5.25 -5.125 2.125 C-3.125 0.125 -3.125 0.125 0 0 Z " fill="#2296F2" transform="translate(352.125,100.875)"/>
<path d="M0 0 C0 1.32 0 2.64 0 4 C-1.32 4.33 -2.64 4.66 -4 5 C-4 5.66 -4 6.32 -4 7 C-5.32 7 -6.64 7 -8 7 C-8 7.99 -8 8.98 -8 10 C-10.64 10.33 -13.28 10.66 -16 11 C-15.25 9.0625 -15.25 9.0625 -14 7 C-11.875 6.25 -11.875 6.25 -10 6 C-9.67 6.66 -9.34 7.32 -9 8 C-8.938125 7.4225 -8.87625 6.845 -8.8125 6.25 C-7.3137468 2.09960652 -4.34140058 0 0 0 Z " fill="#2196F3" transform="translate(349,140)"/>
<path d="M0 0 C2.54508827 0.96537831 3.92083611 1.90617613 5.6875 4 C7.79129713 8.80867915 8.81967591 14.05543175 7.38671875 19.203125 C6.5625 21.125 6.5625 21.125 5 24 C4.67 24 4.34 24 4 24 C4 22.02 4 20.04 4 18 C4.33 18 4.66 18 5 18 C5.0272415 16.58344207 5.04650467 15.16672955 5.0625 13.75 C5.07410156 12.96109375 5.08570313 12.1721875 5.09765625 11.359375 C5.00385306 9.09308998 4.63241063 7.1711105 4 5 C2.35 4.67 0.7 4.34 -1 4 C-0.67 2.68 -0.34 1.36 0 0 Z " fill="#216AA4" transform="translate(217,402)"/>
<path d="M0 0 C0.66 0.33 1.32 0.66 2 1 C1.67 2.65 1.34 4.3 1 6 C0.34 6 -0.32 6 -1 6 C-1.05418326 8.08304538 -1.09287551 10.16649768 -1.125 12.25 C-1.14820312 13.41015625 -1.17140625 14.5703125 -1.1953125 15.765625 C-1.0103949 18.82786046 -0.60823023 20.44202751 1 23 C0.01 23 -0.98 23 -2 23 C-4.98078179 18.00420971 -4.63238966 12.64003336 -4 7 C-2.94497413 4.25234568 -1.74739064 2.40266213 0 0 Z " fill="#2874B2" transform="translate(109,403)"/>
<path d="M0 0 C0.66 0 1.32 0 2 0 C4.67927341 4.01891012 4.15601248 6.24161923 4 11 C3.01 11 2.02 11 1 11 C-1.25 8.75 -1.25 8.75 -3 6 C-2.82560493 2.94808622 -2.18741485 2.18741485 0 0 Z " fill="#2096F4" transform="translate(219,407)"/>
<path d="M0 0 C2.64 0.66 5.28 1.32 8 2 C8 2.66 8 3.32 8 4 C11.63 4 15.26 4 19 4 C19 3.01 19 2.02 19 1 C19.66 1.33 20.32 1.66 21 2 C20.34 3.32 19.68 4.64 19 6 C7.17706267 6.6887148 7.17706267 6.6887148 3.3125 4.125 C1 2 1 2 0 0 Z " fill="#2B7EC1" transform="translate(109,427)"/>
<path d="M0 0 C2.2125299 1.34332172 2.68554348 2.75150887 3.75 5.0625 C2.29634731 6.23499353 0.83692581 7.40033816 -0.625 8.5625 C-1.43710937 9.2121875 -2.24921875 9.861875 -3.0859375 10.53125 C-5.25 12.0625 -5.25 12.0625 -7.25 12.0625 C-7.25 11.0725 -7.25 10.0825 -7.25 9.0625 C-5.93 9.0625 -4.61 9.0625 -3.25 9.0625 C-3.58 8.0725 -3.91 7.0825 -4.25 6.0625 C-2.6 6.0625 -0.95 6.0625 0.75 6.0625 C0.75 4.7425 0.75 3.4225 0.75 2.0625 C-0.36375 2.743125 -1.4775 3.42375 -2.625 4.125 C-4.5234375 5.28515625 -4.5234375 5.28515625 -6.25 6.0625 C-6.91 5.7325 -7.57 5.4025 -8.25 5.0625 C-2.90363128 0.08065642 -2.90363128 0.08065642 0 0 Z " fill="#3F97DD" transform="translate(348.25,137.9375)"/>
<path d="M0 0 C0.66 0 1.32 0 2 0 C2 0.66 2 1.32 2 2 C4.64 1.67 7.28 1.34 10 1 C6.6717942 4.3282058 3.04826947 4.92643723 -1.5625 5.25 C-4.83874509 5.01172763 -7.06623883 4.42242966 -10 3 C-10 2.67 -10 2.34 -10 2 C-9.04287109 1.90912109 -9.04287109 1.90912109 -8.06640625 1.81640625 C-6.82697266 1.69072266 -6.82697266 1.69072266 -5.5625 1.5625 C-4.73878906 1.48128906 -3.91507812 1.40007812 -3.06640625 1.31640625 C-1.01337975 1.21069185 -1.01337975 1.21069185 0 0 Z " fill="#3195E1" transform="translate(331,149)"/>
<path d="M0 0 C2.475 0.99 2.475 0.99 5 2 C5 6 5 6 3.8125 7.75 C1.44116664 9.38540232 -0.18076123 9.22858693 -3 9 C-3.66 7.68 -4.32 6.36 -5 5 C-3.35 4.67 -1.7 4.34 0 4 C0 2.68 0 1.36 0 0 Z " fill="#2296F3" transform="translate(314,102)"/>
<path d="M0 0 C0.99 0 1.98 0 3 0 C4.36884358 4.51718381 3.47075246 7.58774263 2 12 C1.34 12 0.68 12 0 12 C-1.1898306 9.6203388 -1.13349966 8.08514265 -1.125 5.4375 C-1.12886719 4.22900391 -1.12886719 4.22900391 -1.1328125 2.99609375 C-1 1 -1 1 0 0 Z " fill="#2685D0" transform="translate(89,282)"/>
<path d="M0 0 C0.33 0.66 0.66 1.32 1 2 C-4.83909078 6.15224234 -9.87439376 6.97579958 -17 6 C-17.99 5.34 -18.98 4.68 -20 4 C-15.05 4 -10.1 4 -5 4 C-5 3.01 -5 2.02 -5 1 C-3.35 0.67 -1.7 0.34 0 0 Z " fill="#2A7EB9" transform="translate(219,427)"/>
<path d="M0 0 C0.99 0 1.98 0 3 0 C3 0.66 3 1.32 3 2 C4.65 2.33 6.3 2.66 8 3 C8.33 4.32 8.66 5.64 9 7 C7.25 7.75 7.25 7.75 5 8 C1.99535358 5.68212991 0.53895377 3.7726764 0 0 Z " fill="#2296F2" transform="translate(311,140)"/>
<path d="M0 0 C3.12395702 2.55596484 4.03166757 5.12667029 5 9 C5.43076923 15.35384615 5.43076923 15.35384615 3 19 C2.92652344 17.75283203 2.92652344 17.75283203 2.8515625 16.48046875 C2.77679688 15.39378906 2.70203125 14.30710937 2.625 13.1875 C2.55539063 12.10855469 2.48578125 11.02960938 2.4140625 9.91796875 C2.18804267 6.81373814 2.18804267 6.81373814 0 4 C0 2.68 0 1.36 0 0 Z " fill="#21649B" transform="translate(220,361)"/>
<path d="M0 0 C0.66 0 1.32 0 2 0 C1.54427812 2.65837761 1.01869055 4.95712169 -0.0625 7.4375 C-1.18252769 10.04414068 -1.18252769 10.04414068 -1 13.1875 C-1 14.115625 -1 15.04375 -1 16 C-1.66 16.66 -2.32 17.32 -3 18 C-3 13.71 -3 9.42 -3 5 C-2.34 5 -1.68 5 -1 5 C-0.67 3.35 -0.34 1.7 0 0 Z " fill="#2473B2" transform="translate(214,332)"/>
<path d="M0 0 C0.89203125 0.10183594 1.7840625 0.20367187 2.703125 0.30859375 C3.37859375 0.39238281 4.0540625 0.47617187 4.75 0.5625 C4.75 0.8925 4.75 1.2225 4.75 1.5625 C-1.685 2.0575 -1.685 2.0575 -8.25 2.5625 C-8.25 3.2225 -8.25 3.8825 -8.25 4.5625 C-9.9 4.5625 -11.55 4.5625 -13.25 4.5625 C-8.98567405 -0.15871802 -6.21837832 -0.73638691 0 0 Z " fill="#24649C" transform="translate(124.25,398.4375)"/>
<path d="M0 0 C1.35439668 2.70879335 1.06501451 5.00933268 1 8 C2.98 8.66 4.96 9.32 7 10 C7.33 9.01 7.66 8.02 8 7 C8.66 7 9.32 7 10 7 C9.34 8.32 8.68 9.64 8 11 C1.6217765 11.36103152 1.6217765 11.36103152 -0.9375 9.875 C-2.48138276 7.15050101 -2.3267107 5.07108055 -2 2 C-1.34 1.34 -0.68 0.68 0 0 Z " fill="#3C92D6" transform="translate(309,101)"/>
<path d="M0 0 C4.62 0 9.24 0 14 0 C14 0.33 14 0.66 14 1 C6.575 2.485 6.575 2.485 -1 4 C-0.67 2.68 -0.34 1.36 0 0 Z " fill="#2068A3" transform="translate(230,262)"/>
<path d="M0 0 C0.33 0 0.66 0 1 0 C1.50588147 1.91512272 2.00448391 3.83216922 2.5 5.75 C2.7784375 6.81734375 3.056875 7.8846875 3.34375 8.984375 C4 12 4 12 4 16 C0.92611583 11.99058587 -0.1276781 9.95889208 -0.0625 4.875 C-0.05347656 3.96492188 -0.04445312 3.05484375 -0.03515625 2.1171875 C-0.02355469 1.41851562 -0.01195312 0.71984375 0 0 Z " fill="#1E6EAA" transform="translate(190,411)"/>
<path d="M0 0 C1.62418745 -0.08090971 3.24951745 -0.13914995 4.875 -0.1875 C5.77992188 -0.22230469 6.68484375 -0.25710937 7.6171875 -0.29296875 C8.79667969 -0.14794922 8.79667969 -0.14794922 10 0 C12.67927341 4.01891012 12.15601248 6.24161923 12 11 C11.34 10.67 10.68 10.34 10 10 C10.04125 9.05125 10.0825 8.1025 10.125 7.125 C10.34973818 3.89755144 10.34973818 3.89755144 8 2 C3.34805286 1.65783765 3.34805286 1.65783765 -1 3 C-0.67 2.01 -0.34 1.02 0 0 Z " fill="#DFFAFE" transform="translate(347,99)"/>
<path d="M0 0 C2.31 0.33 4.62 0.66 7 1 C6.01 2.98 5.02 4.96 4 7 C0 2.25 0 2.25 0 0 Z " fill="#2285CC" transform="translate(96,305)"/>
<path d="M0 0 C0.99 0.33 1.98 0.66 3 1 C3 2.32 3 3.64 3 5 C3.99 5.33 4.98 5.66 6 6 C6 7.32 6 8.64 6 10 C6.66 10.33 7.32 10.66 8 11 C7.34 11.66 6.68 12.32 6 13 C4.99491199 11.21118264 3.99607264 9.41885304 3 7.625 C2.1646875 6.12839844 2.1646875 6.12839844 1.3125 4.6015625 C0 2 0 2 0 0 Z " fill="#226CA6" transform="translate(105,321)"/>
<path d="M0 0 C1.0625 1.8125 1.0625 1.8125 2 4 C1.67 4.99 1.34 5.98 1 7 C0.34 7 -0.32 7 -1 7 C-1 7.99 -1 8.98 -1 10 C-1.99 10 -2.98 10 -4 10 C-2.8905928 6.51329166 -1.73662334 3.22515763 0 0 Z " fill="#2374B7" transform="translate(228,266)"/>
<path d="M0 0 C0.66 0 1.32 0 2 0 C-0.89066059 9.59453303 -0.89066059 9.59453303 -4 13 C-4 11.35 -4 9.7 -4 8 C-3.34 8 -2.68 8 -2 8 C-2 6.35 -2 4.7 -2 3 C-1.34 3 -0.68 3 0 3 C0 2.01 0 1.02 0 0 Z " fill="#236AA6" transform="translate(231,297)"/>
<path d="M0 0 C3 1 3 1 5 4 C5.125 6.6875 5.125 6.6875 5 9 C0.57142857 3.85714286 0.57142857 3.85714286 0 0 Z " fill="#2270AC" transform="translate(100,312)"/>
<path d="M0 0 C2.31 0 4.62 0 7 0 C6.360625 0.309375 5.72125 0.61875 5.0625 0.9375 C3.06389179 1.8345163 3.06389179 1.8345163 2 3 C1.76924918 4.34747084 1.58846937 5.70377565 1.4375 7.0625 C1.293125 8.361875 1.14875 9.66125 1 11 C0.67 11 0.34 11 0 11 C0 7.37 0 3.74 0 0 Z " fill="#CFE1E4" transform="translate(244,262)"/>
<path d="M0 0 C3.63 1.98 7.26 3.96 11 6 C7 7 7 7 5.078125 6.22265625 C3.38541667 5.1484375 1.69270833 4.07421875 0 3 C0 2.01 0 1.02 0 0 Z " fill="#DAF9FF" transform="translate(312,146)"/>
<path d="M0 0 C2.9375 1.3125 2.9375 1.3125 6 3 C6.33 3.99 6.66 4.98 7 6 C6.01 6 5.02 6 4 6 C3.67 5.34 3.34 4.68 3 4 C1.68 4 0.36 4 -1 4 C-0.67 2.68 -0.34 1.36 0 0 Z " fill="#2675B6" transform="translate(129,400)"/>
<path d="M0 0 C2.31 0 4.62 0 7 0 C7 0.66 7 1.32 7 2 C8.65 2 10.3 2 12 2 C12 2.33 12 2.66 12 3 C7.45194365 3.17835515 4.1205746 2.99785435 0 1 C0 0.67 0 0.34 0 0 Z " fill="#56A9E3" transform="translate(321,151)"/>
<path d="M0 0 C4.42857143 5.14285714 4.42857143 5.14285714 5 9 C2 8 2 8 0.8125 6.1875 C0 4 0 4 0 0 Z " fill="#2269A1" transform="translate(213,348)"/>
<path d="M0 0 C2.97 0.495 2.97 0.495 6 1 C6.33 2.32 6.66 3.64 7 5 C3.34683329 3.75023244 2.21934164 3.32901247 0 0 Z " fill="#2874B0" transform="translate(109,427)"/>
<path d="M0 0 C0.33 1.32 0.66 2.64 1 4 C-0.32 4.33 -1.64 4.66 -3 5 C-3 4.01 -3 3.02 -3 2 C-3.66 1.67 -4.32 1.34 -5 1 C-3 0 -3 0 0 0 Z " fill="#2585D1" transform="translate(219,357)"/>
<path d="M0 0 C0.99 0.33 1.98 0.66 3 1 C2.25 5.75 2.25 5.75 0 8 C-0.38063221 5.6739143 -0.71269945 3.33944736 -1 1 C-0.67 0.67 -0.34 0.34 0 0 Z " fill="#2271B1" transform="translate(220,317)"/>
</svg>
